<svg xmlns="http://www.w3.org/2000/svg" viewBox="0 0 300 280" role="img" aria-label="Pass the phone clockwise privacy illustration">
  <defs>
    <linearGradient id="card" x1="148" y1="38" x2="286" y2="250" gradientUnits="userSpaceOnUse">
      <stop stop-color="#A95BFF"/>
      <stop offset=".48" stop-color="#762DE0"/>
      <stop offset="1" stop-color="#4A168D"/>
    </linearGradient>
    <linearGradient id="cardEdge" x1="145" y1="50" x2="286" y2="250" gradientUnits="userSpaceOnUse">
      <stop stop-color="#54209A"/>
      <stop offset="1" stop-color="#260852"/>
    </linearGradient>
    <linearGradient id="phone" x1="37" y1="12" x2="176" y2="267" gradientUnits="userSpaceOnUse">
      <stop stop-color="#3A176E"/>
      <stop offset=".18" stop-color="#251052"/>
      <stop offset="1" stop-color="#100422"/>
    </linearGradient>
    <linearGradient id="screen" x1="54" y1="44" x2="158" y2="229" gradientUnits="userSpaceOnUse">
      <stop stop-color="#35136A"/>
      <stop offset=".56" stop-color="#260D52"/>
      <stop offset="1" stop-color="#180632"/>
    </linearGradient>
    <linearGradient id="secret" x1="68" y1="130" x2="145" y2="184" gradientUnits="userSpaceOnUse">
      <stop stop-color="#7040B0"/>
      <stop offset="1" stop-color="#4A237E"/>
    </linearGradient>
    <filter id="cardShadow" x="-30%" y="-30%" width="180%" height="180%">
      <feDropShadow dx="0" dy="7" stdDeviation="6" flood-color="#24104C" flood-opacity=".3"/>
    </filter>
    <filter id="phoneShadow" x="-30%" y="-20%" width="180%" height="170%">
      <feDropShadow dx="0" dy="8" stdDeviation="7" flood-color="#1C063F" flood-opacity=".42"/>
    </filter>
  </defs>

  <g fill="none" stroke="#6D28D9" stroke-width="7" stroke-linecap="round">
    <path d="m21 202-13-7m17-6-5-14m18 12 8-12"/>
  </g>
  <path d="m270 8 6 17 17 7-17 6-6 18-7-18-17-6 17-7 7-17Z" fill="#FFC914"/>
  <path d="m270 15 3 10 10 4-10 4-3 10-4-10-10-4 10-4 4-10Z" fill="#FFE477" opacity=".72"/>

  <g filter="url(#cardShadow)" transform="rotate(10 216 146)">
    <rect x="143" y="43" width="146" height="210" rx="17" fill="url(#cardEdge)"/>
    <rect x="138" y="37" width="146" height="210" rx="17" fill="url(#card)" stroke="#2A075F" stroke-width="3"/>
    <path d="M151 50h119v17c-29-11-68-10-119 3V50Z" fill="#D7A8FF" opacity=".22"/>
    <path d="M151 52v180" stroke="#CFA1FF" stroke-width="2" opacity=".32"/>
    <text x="219" y="111" fill="#FFFFFF" font-family="Helvetica Neue, Helvetica, Arial, sans-serif" font-size="36" font-weight="800" text-anchor="middle" letter-spacing="-1">PASS</text>
    <text x="229" y="136" fill="#FFFFFF" font-family="Helvetica Neue, Helvetica, Arial, sans-serif" font-size="15.5" font-weight="700" text-anchor="middle" letter-spacing=".2">CLOCKWISE</text>
    <path d="M190 185a31 31 0 1 1 11 24" fill="none" stroke="#EFE3FF" stroke-width="9" stroke-linecap="round"/>
    <path d="m187 210 5-22 18 13-23 9Z" fill="#EFE3FF"/>
  </g>

  <g filter="url(#phoneShadow)">
    <rect x="28" y="72" width="8" height="39" rx="4" fill="#2B0D5D"/>
    <rect x="28" y="119" width="8" height="28" rx="4" fill="#2B0D5D"/>
    <rect x="170" y="82" width="7" height="55" rx="3.5" fill="#17052F"/>
    <rect x="34" y="9" width="142" height="258" rx="31" fill="#1A063A" stroke="#4E2581" stroke-width="4"/>
    <rect x="39" y="13" width="132" height="248" rx="27" fill="url(#phone)" stroke="#190534" stroke-width="3"/>
    <rect x="45" y="19" width="120" height="236" rx="23" fill="none" stroke="#7545A7" stroke-width="2" opacity=".38"/>
    <rect x="52" y="43" width="106" height="188" rx="16" fill="url(#screen)"/>
    <path d="M58 49h92v56c-21-18-52-24-92-12V49Z" fill="#8D58C8" opacity=".08"/>
    <rect x="86" y="25" width="38" height="7" rx="3.5" fill="#67438B"/>
    <rect x="85" y="245" width="40" height="5" rx="2.5" fill="#69458D"/>

    <path d="M98 76v-10a11 11 0 0 1 22 0v10" fill="none" stroke="#FFFFFF" stroke-width="5" stroke-linecap="round"/>
    <rect x="94" y="74" width="30" height="27" rx="6" fill="#F7F3FF"/>
    <circle cx="109" cy="84" r="3.3" fill="#25104E"/>
    <path d="M109 87v7" stroke="#25104E" stroke-width="3" stroke-linecap="round"/>

    <text x="105" y="122" fill="#FFFFFF" font-family="Helvetica Neue, Helvetica, Arial, sans-serif" font-size="13" font-weight="700" text-anchor="middle">Press and hold</text>
    <rect x="65" y="133" width="80" height="53" rx="9" fill="url(#secret)" stroke="#7545AE" stroke-width="1.5"/>
    <path d="M72 139h66" stroke="#A87CDC" stroke-width="1" opacity=".35"/>
    <text x="105" y="155" fill="#FFFFFF" font-family="Helvetica Neue, Helvetica, Arial, sans-serif" font-size="11" font-weight="600" text-anchor="middle">Your word</text>
    <text x="105" y="171" fill="#FFFFFF" font-family="Helvetica Neue, Helvetica, Arial, sans-serif" font-size="11" font-weight="600" text-anchor="middle">appears here</text>

    <path d="M77 208c9-12 18-18 28-18s19 6 28 18c-9 12-18 18-28 18s-19-6-28-18Z" fill="#F8F4FF"/>
    <circle cx="105" cy="208" r="9" fill="#6130A0"/>
    <circle cx="105" cy="208" r="3.5" fill="#16052F"/>
  </g>
</svg>
